<svg id="Layer_1" data-name="Layer 1" xmlns="http://www.w3.org/2000/svg" viewBox="0 0 157.3 111.25"><defs><style>.cls-1{fill:#05557b;}.cls-2{fill:#8aafc5;}.cls-3{fill:#0096aa;}.cls-4{fill:#2f3a46;}.cls-5{fill:#104155;}</style></defs><title>logo</title><path class="cls-1" d="M101,49.77h0a18.39,18.39,0,0,0-.64-5.33C97.88,32.14,79,2.53,77.46.15L77.36,0l-.08.13c-1.44,2.24-20.43,32-22.86,44.3a18.57,18.57,0,0,0-.65,5.33h0l0,1.29a23.8,23.8,0,0,0,.4,4.33H70.72V73.71a23.6,23.6,0,0,0,6.6.94h.08A23.59,23.59,0,0,0,101,51.06Z"/><path class="cls-1" d="M54.13,55.39a24.15,24.15,0,0,0,.59,2.46h1.36V55.39l-.12-.3H55Z"/><path class="cls-1" d="M70.72,73.71a30.77,30.77,0,0,1-3.35-1.26V71.31h3.35l1.21,1.2.19.61Z"/><rect class="cls-2" x="64.19" y="40.56" width="5.26" height="5.26"/><rect class="cls-1" x="60.95" y="57.85" width="7.82" height="7.82"/><rect class="cls-3" x="53.73" y="67.83" width="7.82" height="7.82"/><rect class="cls-4" x="55.96" y="53.67" width="4.18" height="4.19"/><rect class="cls-3" x="67.51" y="66.83" width="4.47" height="4.47"/><rect class="cls-4" x="70.71" y="48.35" width="7.05" height="7.05"/><rect class="cls-5" x="44.12" y="61.76" width="7.05" height="7.05"/><path class="cls-5" d="M77.36,0l.1.15c1.53,2.38,20.42,32,22.84,44.28a18.57,18.57,0,0,1,.65,5.33h0l0,1.29A23.59,23.59,0,0,1,85.55,73.2l-3.31.94s8.31-6.77,6.38-26.8S77.36,0,77.36,0"/><rect class="cls-3" x="67.84" y="83.85" width="89.46" height="1.72"/><path d="M.32,88.22H9.65a8.6,8.6,0,0,1,6.17,2.17,6,6,0,0,1,1.67,4.28v.07c0,3.59-2.48,5.7-5.89,6.32l6.67,8.87h-3L9,101.5H2.76v8.43H.32ZM9.43,99.29c3.26,0,5.58-1.67,5.58-4.46v-.06c0-2.67-2-4.28-5.55-4.28H2.76v8.8Z"/><path d="M21.12,105.28v-.06c0-3.38,2.79-5.18,6.85-5.18a17.19,17.19,0,0,1,4.93.68v-.56c0-2.88-1.77-4.37-4.78-4.37A11.13,11.13,0,0,0,23.26,97l-.72-2a13.35,13.35,0,0,1,5.83-1.33,7,7,0,0,1,5.18,1.77,6.33,6.33,0,0,1,1.64,4.68v9.8H32.9v-2.42a7,7,0,0,1-5.8,2.76C24.12,110.27,21.12,108.56,21.12,105.28ZM32.93,104v-1.55a16.73,16.73,0,0,0-4.71-.69c-3,0-4.69,1.31-4.69,3.32v.06c0,2,1.86,3.2,4,3.2C30.51,108.38,32.93,106.58,32.93,104Z"/><path d="M40.34,87.76h2.72v2.63H40.34Zm.15,6.14h2.39v16H40.49Z"/><path d="M48.43,93.9h2.38v2.79a6.07,6.07,0,0,1,5.49-3.13c3.88,0,6.14,2.6,6.14,6.42v10H60.05v-9.37c0-3-1.61-4.83-4.43-4.83a4.72,4.72,0,0,0-4.81,5v9.18H48.43Z"/><path class="cls-3" d="M67.93,88.22h2.48l7.9,11.85,7.91-11.85H88.7v21.71H86.25V92.35L78.34,104h-.12l-7.91-11.6v17.55H67.93Z"/><path class="cls-3" d="M93.22,105.28v-.06c0-3.38,2.79-5.18,6.85-5.18a17.08,17.08,0,0,1,4.93.68v-.56c0-2.88-1.76-4.37-4.77-4.37A11.21,11.21,0,0,0,95.36,97l-.71-2a13.32,13.32,0,0,1,5.83-1.33,7,7,0,0,1,5.18,1.77,6.33,6.33,0,0,1,1.64,4.68v9.8H105v-2.42a7,7,0,0,1-5.79,2.76C96.23,110.27,93.22,108.56,93.22,105.28ZM105,104v-1.55a16.75,16.75,0,0,0-4.72-.69c-3,0-4.68,1.31-4.68,3.32v.06c0,2,1.86,3.2,4,3.2C102.62,108.38,105,106.58,105,104Z"/><path class="cls-3" d="M112.38,87.29h2.39v15.63l8.65-9h3l-6.73,6.88,6.94,9.15h-2.85L118,102.46l-3.25,3.28v4.19h-2.39Z"/><path class="cls-3" d="M128.28,102v-.06c0-4.62,3.26-8.34,7.69-8.34,4.75,0,7.47,3.78,7.47,8.46a6.52,6.52,0,0,1,0,.78H130.7a5.59,5.59,0,0,0,5.64,5.42A6.64,6.64,0,0,0,141.4,106l1.49,1.33a8.29,8.29,0,0,1-6.61,3A8,8,0,0,1,128.28,102ZM141,101c-.25-2.91-1.93-5.46-5.12-5.46-2.79,0-4.9,2.33-5.21,5.46Z"/><path class="cls-3" d="M147.63,93.9H150v4.18a6.89,6.89,0,0,1,6.55-4.46v2.57h-.19c-3.5,0-6.36,2.51-6.36,7.35v6.39h-2.38Z"/></svg>