<?xml version="1.0" encoding="utf-8"?>
<!-- Generator: Adobe Illustrator 23.1.0, SVG Export Plug-In . SVG Version: 6.00 Build 0)  -->
<svg version="1.1" id="Layer_1" xmlns="http://www.w3.org/2000/svg" xmlns:xlink="http://www.w3.org/1999/xlink" x="0px" y="0px"
	 viewBox="0 0 228.56 75.66" style="enable-background:new 0 0 228.56 75.66;" xml:space="preserve">
<style type="text/css">
	.st0{fill:#05557B;}
	.st1{fill:#8AAFC5;}
	.st2{fill:#0096AA;}
	.st3{fill:#2F3A46;}
	.st4{fill:#104155;}
	.st5{fill:#010202;}
</style>
<g>
	<g>
		<g>
			<path class="st0" d="M56.83,49.77L56.83,49.77c0.02-3.27-0.65-5.33-0.65-5.33c-2.43-12.3-21.32-41.9-22.85-44.28L33.24,0
				l-0.09,0.13c-1.44,2.24-20.42,31.97-22.86,44.3c0,0-0.67,2.07-0.65,5.33v0.01l-0.04,1.29c0,1.48,0.14,2.93,0.4,4.33H26.6v18.32
				c2.1,0.61,4.31,0.94,6.6,0.94h0.08c13.03,0,23.59-10.56,23.59-23.59L56.83,49.77z"/>
		</g>
		<g>
			<path class="st0" d="M10,55.39c0,0,0.4,2.04,0.6,2.46h0.88h0.47v-2.46l-0.12-0.3h-0.96L10,55.39z"/>
		</g>
		<g>
			<path class="st0" d="M26.6,73.71c0,0-2.35-0.75-3.35-1.27v-0.89V71.3h3.35l1.2,1.21l0.19,0.61L26.6,73.71z"/>
		</g>
		<g>
			<rect x="20.06" y="40.56" class="st1" width="5.26" height="5.26"/>
		</g>
		<g>
			<rect x="16.82" y="57.85" class="st0" width="7.82" height="7.82"/>
		</g>
		<g>
			<rect x="9.61" y="67.83" class="st2" width="7.82" height="7.82"/>
		</g>
		<g>
			<rect x="11.84" y="53.67" class="st3" width="4.18" height="4.19"/>
		</g>
		<g>
			<rect x="23.38" y="66.83" class="st2" width="4.47" height="4.47"/>
		</g>
		<g>
			<rect x="26.59" y="48.35" class="st3" width="7.05" height="7.05"/>
		</g>
		<g>
			<rect y="61.76" class="st4" width="7.05" height="7.05"/>
		</g>
		<g>
			<path class="st4" d="M33.24,0l0.1,0.15c1.53,2.38,20.42,31.99,22.85,44.28c0,0,0.67,2.07,0.65,5.32l0,0.01l0.04,1.29
				c0,10.17-6.43,18.83-15.44,22.15l-3.3,0.93c0,0,8.3-6.77,6.38-26.79C42.57,27.32,33.24,0,33.24,0"/>
		</g>
	</g>
	<g>
		<g>
			<rect x="139.1" y="32.78" class="st2" width="89.46" height="1.72"/>
		</g>
		<g>
			<path class="st5" d="M71.58,37.16h9.33c2.67,0,4.81,0.81,6.17,2.17c1.05,1.05,1.67,2.57,1.67,4.28v0.06
				c0,3.6-2.48,5.71-5.89,6.33l6.67,8.87h-3.01l-6.29-8.43h-6.2v8.43h-2.45V37.16z M80.69,48.23c3.25,0,5.58-1.67,5.58-4.46V43.7
				c0-2.67-2.05-4.28-5.55-4.28h-6.7v8.81H80.69z"/>
			<path class="st5" d="M92.38,54.21v-0.06c0-3.38,2.79-5.18,6.85-5.18c2.05,0,3.5,0.28,4.93,0.68v-0.56c0-2.88-1.77-4.37-4.78-4.37
				c-1.89,0-3.38,0.5-4.87,1.18l-0.71-1.95c1.77-0.81,3.5-1.33,5.83-1.33c2.26,0,4,0.59,5.18,1.77c1.09,1.08,1.64,2.64,1.64,4.68
				v9.8h-2.29v-2.42c-1.12,1.46-2.98,2.76-5.8,2.76C95.38,59.2,92.38,57.5,92.38,54.21z M104.19,52.97v-1.55
				c-1.18-0.34-2.76-0.68-4.71-0.68c-3.01,0-4.68,1.3-4.68,3.32v0.06c0,2.02,1.86,3.19,4.03,3.19
				C101.77,57.31,104.19,55.51,104.19,52.97z"/>
			<path class="st5" d="M111.6,36.69h2.73v2.64h-2.73V36.69z M111.75,42.83h2.39v16.03h-2.39V42.83z"/>
			<path class="st5" d="M119.69,42.83h2.39v2.79c1.05-1.74,2.73-3.13,5.49-3.13c3.88,0,6.14,2.6,6.14,6.42v9.95h-2.39V49.5
				c0-2.98-1.61-4.84-4.43-4.84c-2.76,0-4.81,2.01-4.81,5.02v9.18h-2.39V42.83z"/>
		</g>
		<g>
			<path class="st2" d="M139.19,37.16h2.48L149.57,49l7.91-11.84h2.48v21.7h-2.45V41.28l-7.91,11.63h-0.12l-7.91-11.6v17.55h-2.39
				V37.16z"/>
			<path class="st2" d="M164.48,54.21v-0.06c0-3.38,2.79-5.18,6.85-5.18c2.05,0,3.5,0.28,4.93,0.68v-0.56
				c0-2.88-1.77-4.37-4.77-4.37c-1.89,0-3.38,0.5-4.87,1.18l-0.71-1.95c1.77-0.81,3.5-1.33,5.83-1.33c2.26,0,4,0.59,5.18,1.77
				c1.08,1.08,1.64,2.64,1.64,4.68v9.8h-2.29v-2.42c-1.12,1.46-2.98,2.76-5.8,2.76C167.49,59.2,164.48,57.5,164.48,54.21z
				 M176.3,52.97v-1.55c-1.18-0.34-2.76-0.68-4.71-0.68c-3.01,0-4.68,1.3-4.68,3.32v0.06c0,2.02,1.86,3.19,4.03,3.19
				C173.88,57.31,176.3,55.51,176.3,52.97z"/>
			<path class="st2" d="M183.64,36.23h2.39v15.63l8.65-9.02h2.98l-6.73,6.88l6.95,9.15h-2.85l-5.74-7.47l-3.26,3.29v4.19h-2.39
				V36.23z"/>
			<path class="st2" d="M199.54,50.89v-0.06c0-4.62,3.26-8.34,7.69-8.34c4.74,0,7.47,3.78,7.47,8.46c0,0.31,0,0.5-0.03,0.78h-12.71
				c0.34,3.47,2.79,5.43,5.64,5.43c2.2,0,3.75-0.9,5.05-2.26l1.49,1.33c-1.61,1.8-3.57,3.01-6.6,3.01
				C203.14,59.23,199.54,55.85,199.54,50.89z M212.29,49.96c-0.25-2.92-1.92-5.46-5.12-5.46c-2.79,0-4.9,2.33-5.21,5.46H212.29z"/>
			<path class="st2" d="M218.89,42.83h2.39v4.19c1.18-2.67,3.5-4.59,6.54-4.46v2.57h-0.19c-3.5,0-6.36,2.51-6.36,7.35v6.39h-2.39
				V42.83z"/>
		</g>
	</g>
</g>
</svg>
