<svg id="Ebene_1" data-name="Ebene 1" xmlns="http://www.w3.org/2000/svg" viewBox="0 0 392.56 159.09"><defs><style>.cls-1{fill:#0667a6;}.cls-2{fill:#e73363;}.cls-3{fill:#f29224;}.cls-4{fill:#96d0ca;}.cls-5{fill:#2baee5;}.cls-6{fill:#23b0e6;}.cls-7{fill:#1067a6;}</style></defs><title>Vektor-Smartobjekt</title><path id="_Pfad_" data-name="&lt;Pfad&gt;" class="cls-1" d="M199.9 159.08a80.51 80.51 0 0 0 64.49-31.86l-19.59-12.71a58.06 58.06 0 0 1-89.79 0l-19.6 12.71a80.51 80.51 0 0 0 64.49 31.86z"/><path id="_Pfad_2" data-name="&lt;Pfad&gt;" class="cls-2" d="M199.9 0a81.12 81.12 0 0 0-65.1 32.14l5 3.27a76 76 0 0 1 120.11 0l5-3.27A81.12 81.12 0 0 0 199.9 0z"/><path id="_Pfad_3" data-name="&lt;Pfad&gt;" class="cls-3" d="M199.9 6a75.15 75.15 0 0 0-60.06 29.41l5 3.27a70.06 70.06 0 0 1 110 0l5-3.27A75.15 75.15 0 0 0 199.9 6z"/><path id="_Pfad_4" data-name="&lt;Pfad&gt;" class="cls-4" d="M199.9 18a63.16 63.16 0 0 1 49.92 24l5.09-3.3a70.06 70.06 0 0 0-110 0l10.06 6.52-5-3.26A63.16 63.16 0 0 1 199.9 18z"/><path id="_Pfad_5" data-name="&lt;Pfad&gt;" class="cls-5" d="M199.9 18a63.16 63.16 0 0 0-49.92 24l5 3.26a58.06 58.06 0 0 1 89.79 0l5-3.26a63.16 63.16 0 0 0-49.87-24z"/><path class="cls-6" d="M-.03 59.67h9.24l8.15 26.55 8.79-26.66h7.39l8.79 26.66 8.12-26.54h9L46.07 99.16h-7.5l-8.85-25.65-8.85 25.65h-7.5zM64.17 59.67h29.57v7.67h-21v8h18.48v7.67H72.74v8.21h21.28v7.67H64.17v-39.2zM113.45 59.39h8l16.8 39.48h-9l-3.58-8.79h-16.64l-3.58 8.79h-8.79zm9.07 23.07l-5.21-12.71-5.21 12.71h10.42zM146.66 67.62h-11.93v-8h32.48v8h-11.92v31.25h-8.62V67.62zM172.14 59.67h8.62v15.55h15.9V59.67h8.62v39.2h-8.61V83.13h-15.9v15.74h-8.62v-39.2zM213.02 59.67h29.57v7.67h-21v8h18.48v7.67h-18.48v8.21h21.28v7.67h-29.85v-39.2zM248.86 59.67h17.92c5 0 8.85 1.4 11.42 4a12.31 12.31 0 0 1 3.36 9v.11a12.17 12.17 0 0 1-8.4 12.15l9.58 14h-10.08l-8.4-12.54h-6.78v12.54h-8.62v-39.2zm17.36 19c4.2 0 6.61-2.24 6.61-5.54v-.11c0-3.7-2.58-5.6-6.78-5.6h-8.57v11.26h8.74z"/><path class="cls-7" d="M296.8 67.62h-11.93v-8h32.48v8h-11.93v31.25h-8.62V67.62zM322.28 59.67h29.57v7.67h-21v8h18.48v7.67h-18.49v8.21h21.28v7.67h-29.84v-39.2zM356.38 79.38v-.11A19.92 19.92 0 0 1 376.82 59c7.39 0 11.82 2.46 15.46 6l-5.49 6.33c-3-2.74-6.1-4.42-10-4.42-6.61 0-11.37 5.49-11.37 12.21v.11c0 6.72 4.65 12.32 11.37 12.32 4.48 0 7.22-1.79 10.3-4.59l5.49 5.54c-4 4.31-8.51 7-16.07 7a19.79 19.79 0 0 1-20.13-20.12z"/></svg>